<svg width="82" height="113" viewBox="0 0 338 113" fill="none" xmlns="http://www.w3.org/2000/svg">
<path d="M316.21 1.88284L290.962 32.1308L304.896 48.1859L316.21 33.8338V110.89H337.796V1.88284H316.21Z" fill="#FE6A21"/>
<path d="M295.405 20.0853L309.459 4.09926C275.962 -5.46284 248.762 6.39615 241.324 17.6803V1.89926H221.034V110.653H242.136V57.7812C241.99 53.1902 242.497 49.4712 243.019 46.8613C243.604 43.9362 243.896 42.4733 244.806 40.8414C245.542 39.5193 247.39 36.7482 248.637 34.8781C249.798 33.137 260.163 21.1071 278.441 18.9993C282.098 18.5772 288.095 18.3264 295.405 20.0853ZM206.419 86.9242C206.706 77.1314 198.085 68.0523 188.256 67.7821C178.174 67.5111 169.162 76.1282 168.962 86.2351C168.771 96.1774 177.356 105.02 187.456 105.256C197.233 105.483 206.132 96.8752 206.419 86.9242ZM68.5747 86.2842C68.3888 76.7972 59.9078 68.7054 50.4199 68.9653C41.1679 69.2162 33.0597 77.7383 33.3279 86.9341C33.5949 96.2834 41.9789 104.359 51.1748 104.148C60.6697 103.928 68.7618 95.6263 68.5747 86.2842ZM106.177 87.5592C101.948 95.3743 95.9018 101.437 88.0289 105.738C79.8807 110.186 70.4748 112.41 59.7938 112.41C48.4309 112.41 38.2298 110.015 29.1967 105.219C20.1629 100.43 13.1109 93.7512 8.04572 85.1974C2.98192 76.6432 0.449707 66.9604 0.449707 56.1422C0.449707 45.3312 2.98192 35.6812 8.04572 27.1923C13.1109 18.7113 20.1227 12.0723 29.0909 7.27516C38.0507 2.47926 48.2849 0.084259 59.7859 0.084259C70.5958 0.084259 80.0757 2.27627 88.2239 6.65807C89.5029 7.34637 91.5189 8.47105 93.8589 10.2173C96.3267 12.0592 98.1418 13.8351 99.3009 15.0611C101.304 17.1812 102.872 19.2802 104.09 21.1661C100.965 23.2983 97.8399 25.4303 94.7147 27.5622C92.3489 29.1762 88.3279 31.8122 83.4679 34.8421C78.9787 37.6402 73.0838 41.1733 65.9447 45.0812C65.9447 45.0812 64.6167 45.2802 64.5818 45.2853C49.8369 47.5054 38.3239 51.4982 38.2998 51.5062C32.6498 53.6183 31.3907 54.1172 31.3907 54.1172C29.2358 54.9724 29.0918 55.0863 27.9667 55.6082C25.9578 56.5422 25.5128 56.5603 24.4019 57.1704C23.5897 57.6151 22.9417 58.0922 22.5979 58.3782C20.6868 59.9713 20.0558 62.4774 19.8338 64.0872C19.3979 67.9162 19.3457 68.7442 19.3457 68.7442C19.2927 69.5923 19.2088 71.1412 19.3389 73.1473C19.4429 74.7633 19.6657 76.0621 20.1119 78.6624C20.1808 79.0603 20.2488 79.4192 20.3659 79.8864C20.4597 80.2563 21.0198 82.1062 21.6177 83.1122C22.8068 85.1092 25.5638 86.1472 26.0187 86.3134C26.9207 86.5013 27.8227 86.6892 28.7238 86.8772C28.6759 85.1432 28.8089 82.4752 29.8458 79.4583C31.8938 73.4934 36.1588 70.1723 38.0507 68.7782C42.6768 65.3693 47.9277 64.6394 53.4717 65.0121C59.2008 65.3942 63.8437 67.8122 67.4227 72.2841C71.0349 76.7802 73.1527 82.0563 72.7467 87.7942C83.8897 87.7154 95.0339 87.6371 106.177 87.5592ZM215.353 1.89926V110.653H194.252V108.769C203.434 105.838 210.676 97.0603 210.963 87.2023C211.268 76.8493 203.384 67.1531 193.372 64.3842C193.865 61.8342 194.12 59.1382 194.12 56.2803C194.12 46.0974 191.021 37.8803 184.839 31.6353C178.658 25.3911 170.824 22.2642 161.337 22.2642C151.851 22.2642 144.05 25.3911 137.934 31.6353C131.818 37.8803 128.76 46.0974 128.76 56.2803C128.76 66.4632 131.818 74.6814 137.934 80.9253C144.05 87.1782 151.851 90.2963 161.337 90.2963C162.373 90.2963 163.384 90.2552 164.379 90.1824C165.711 98.1894 171.596 105.131 179.266 108.177C179.233 108.185 179.2 108.201 179.167 108.217C172.912 110.799 165.998 112.09 158.444 112.09C147.724 112.09 138.131 109.784 129.681 105.164C121.222 100.552 114.629 94.0312 109.886 85.6104C105.143 77.1903 102.776 67.4134 102.776 56.2803C102.776 45.1472 105.143 35.4031 109.886 27.0554C114.629 18.7082 121.23 12.2282 129.681 7.60706C138.14 2.99516 147.724 0.681259 158.444 0.681259C165.587 0.681259 172.155 1.89926 178.132 4.34326C184.116 6.78736 189.854 10.3851 194.252 15.1351V1.89926H215.353Z" fill="white"/>
</svg>
