<svg width="31" height="50" viewBox="0 0 31 50" fill="none" xmlns="http://www.w3.org/2000/svg">
<path d="M15.4998 0C23.6412 0 30.2418 6.59984 30.2419 14.7412C30.2419 21.5455 25.6312 27.2726 19.364 28.9707H19.4363V32.9531L17.5964 34.3037V36.3535H19.4363V38.9844L17.8289 39.7998V41.8496L19.4363 42.8506V45.6689L15.3835 50L11.7507 46.4834V29.001C5.42526 27.3421 0.758545 21.587 0.758545 14.7412C0.758704 6.59994 7.35848 0.00015875 15.4998 0ZM4.62378 14.9512C5.41189 21.3458 7.6192 23.387 13.5671 25.2676C13.56 18.6741 11.6642 16.3688 4.62378 14.9512ZM26.282 14.9512C19.242 16.3689 17.3467 18.6742 17.3396 25.2676C23.2875 23.387 25.4939 21.3457 26.282 14.9512ZM15.4998 12.0635C14.0208 12.0636 12.8221 13.2622 12.822 14.7412C12.822 16.2202 14.0208 17.4198 15.4998 17.4199C16.9789 17.4199 18.1785 16.2203 18.1785 14.7412C18.1784 13.2622 16.9788 12.0635 15.4998 12.0635ZM26.0261 11.8311C23.3014 1.80774 8.90934 -0.791219 4.85718 11.8311H11.1912C14.0556 8.78029 16.8045 8.82686 19.5525 11.8311H26.0261Z" fill="white"/>
</svg>
