<svg width="30" height="100" viewBox="0 0 638 1090" fill="none" xmlns="http://www.w3.org/2000/svg">
<path fill-rule="evenodd" clip-rule="evenodd" d="M637.5 337C607.295 110.849 535.134 39.3121 317 1C115.457 31.7153 45.4916 99.1433 0.5 312C18.8025 486.38 62.5619 561.657 236.5 631.5V1008L318 1088.5L394 1008V926.5L371.5 914V870L394 856V795H363V751L404 722V631.5C576.283 543.607 626.399 478.847 637.5 337ZM491 484C454.54 523.813 424.205 537.725 363 556.5C362.116 475.5 371.864 441.169 405.5 397.5C456.973 358.341 490.114 346.01 555 337C546.425 403.765 532.522 435.964 491 484ZM137 474C187.814 524.491 219.544 542.906 282.5 556.5C288.434 484.745 267.698 449.56 225 388C171.831 352.858 140.175 345.47 83 337C92.524 400.873 103.02 432.052 137 474ZM83 268H225C257.915 238.969 277.965 229.518 317 226.5C360.068 228.67 379.636 237.523 405.5 268H555C494.795 144.23 440.849 102.317 317 82.5C176.063 107.74 117.405 148.716 83 268ZM317 268C277.297 282.359 265.958 296.142 262.5 329.5C269.265 367.646 282.144 379.463 317 388C358.239 380.607 371.272 367.672 377 329.5C373.329 292.205 359.419 279.269 317 268Z" fill="white" />
</svg>
